<?xml version="1.0" encoding="UTF-8" standalone="no"?>
<svg width="800" height="400" viewBox="0 0 800 400" xmlns="http://www.w3.org/2000/svg">
  <!-- 배경 -->
  <rect width="800" height="400" fill="#f8f9fa" rx="10" ry="10"/>
  
  <!-- 타이틀 -->
  <text x="400" y="40" font-family="Arial" font-size="20" text-anchor="middle" font-weight="bold" fill="#333">
    이명 치료 복합 자극 워크플로우
  </text>
  
  <!-- 환자 아이콘 -->
  <g id="patient">
    <circle cx="100" cy="200" r="40" fill="#bbdefb" stroke="#2196f3" stroke-width="2"/>
    <g transform="translate(75, 185)">
      <!-- 얼굴 -->
      <circle cx="25" cy="15" r="15" fill="#fff"/>
      <!-- 눈 -->
      <ellipse cx="20" cy="12" rx="2" ry="3" fill="#333"/>
      <ellipse cx="30" cy="12" rx="2" ry="3" fill="#333"/>
      <!-- 입 -->
      <path d="M20,20 Q25,25 30,20" stroke="#333" stroke-width="1.5" fill="none"/>
    </g>
    <text x="100" y="260" font-family="Arial" font-size="14" text-anchor="middle" fill="#0d47a1">
      환자
    </text>
  </g>
  
  <!-- 분석 아이콘 -->
  <g id="analysis">
    <rect x="220" y="160" width="80" height="80" rx="5" ry="5" fill="#e8f5e9" stroke="#4caf50" stroke-width="2"/>
    <g transform="translate(240, 170)">
      <!-- EEG 파형 -->
      <path d="M0,30 Q10,10 20,30 Q30,50 40,30" stroke="#1b5e20" stroke-width="2" fill="none">
        <animate attributeName="d" values="M0,30 Q10,10 20,30 Q30,50 40,30; M0,30 Q10,50 20,30 Q30,10 40,30; M0,30 Q10,10 20,30 Q30,50 40,30" dur="3s" repeatCount="indefinite"/>
      </path>
    </g>
    <text x="260" y="260" font-family="Arial" font-size="14" text-anchor="middle" fill="#1b5e20">
      신호 분석
    </text>
  </g>
  
  <!-- 복합자극 아이콘 -->
  <g id="stimuli">
    <rect x="360" y="160" width="80" height="80" rx="5" ry="5" fill="#fff3e0" stroke="#ff9800" stroke-width="2"/>
    <g transform="translate(380, 180)">
      <!-- 청각 -->
      <path d="M0,20 Q20,0 40,20" stroke="#e65100" stroke-width="2" fill="none">
        <animate attributeName="d" values="M0,20 Q20,0 40,20; M0,20 Q20,40 40,20; M0,20 Q20,0 40,20" dur="2s" repeatCount="indefinite"/>
      </path>
      <!-- 시각 -->
      <circle cx="20" cy="25" r="10" stroke="#e65100" stroke-width="2" fill="none">
        <animate attributeName="r" values="10;15;10" dur="3s" repeatCount="indefinite"/>
      </circle>
      <!-- 촉각 -->
      <path d="M15,40 Q20,45 25,40" stroke="#e65100" stroke-width="2" fill="none">
        <animate attributeName="d" values="M15,40 Q20,45 25,40; M15,42 Q20,37 25,42; M15,40 Q20,45 25,40" dur="1s" repeatCount="indefinite"/>
      </path>
    </g>
    <text x="400" y="260" font-family="Arial" font-size="14" text-anchor="middle" fill="#e65100">
      복합 자극
    </text>
  </g>
  
  <!-- 출력 장치 아이콘 -->
  <g id="devices">
    <rect x="500" y="160" width="80" height="80" rx="5" ry="5" fill="#f3e5f5" stroke="#9c27b0" stroke-width="2"/>
    <g transform="translate(520, 180)">
      <!-- 헤드폰 -->
      <path d="M10,10 C0,15 0,25 10,30 L15,30 L15,10 Z" fill="#4a148c"/>
      <path d="M30,10 C40,15 40,25 30,30 L25,30 L25,10 Z" fill="#4a148c"/>
      <path d="M15,10 L25,10" stroke="#4a148c" stroke-width="2"/>
      
      <!-- LED -->
      <circle cx="20" cy="45" r="5" fill="#ff0">
        <animate attributeName="fill" values="#ff0;#fa0;#ff0" dur="1s" repeatCount="indefinite"/>
      </circle>
    </g>
    <text x="540" y="260" font-family="Arial" font-size="14" text-anchor="middle" fill="#4a148c">
      출력 장치
    </text>
  </g>
  
  <!-- 적응형 제어 아이콘 -->
  <g id="adaptive">
    <rect x="640" y="160" width="80" height="80" rx="5" ry="5" fill="#e0f2f1" stroke="#009688" stroke-width="2"/>
    <g transform="translate(650, 180)">
      <!-- 뇌 아이콘 -->
      <path d="M30,15 C45,0 65,15 60,30 C75,25 75,50 60,50 C65,65 45,70 30,55 C15,70 0,60 5,45 C-5,35 5,15 20,15 C25,5 25,20 30,15 Z" fill="#b2dfdb" stroke="#004d40" stroke-width="1"/>
      <!-- 학습 링크 -->
      <circle cx="30" cy="35" r="2" fill="#004d40">
        <animate attributeName="cx" values="30;35;30;25;30" dur="2s" repeatCount="indefinite"/>
        <animate attributeName="cy" values="35;30;25;30;35" dur="2s" repeatCount="indefinite"/>
      </circle>
      <circle cx="40" cy="35" r="2" fill="#004d40">
        <animate attributeName="cx" values="40;35;30;35;40" dur="2s" repeatCount="indefinite"/>
        <animate attributeName="cy" values="35;40;35;30;35" dur="2s" repeatCount="indefinite"/>
      </circle>
    </g>
    <text x="680" y="260" font-family="Arial" font-size="14" text-anchor="middle" fill="#004d40">
      적응형 제어
    </text>
  </g>
  
  <!-- 프로세스 화살표 -->
  <path d="M145,200 L215,200" stroke="#333" stroke-width="3" stroke-dasharray="5,2" fill="none" marker-end="url(#arrow)"/>
  <path d="M305,200 L355,200" stroke="#333" stroke-width="3" stroke-dasharray="5,2" fill="none" marker-end="url(#arrow)"/>
  <path d="M445,200 L495,200" stroke="#333" stroke-width="3" stroke-dasharray="5,2" fill="none" marker-end="url(#arrow)"/>
  <path d="M585,200 L635,200" stroke="#333" stroke-width="3" stroke-dasharray="5,2" fill="none" marker-end="url(#arrow)"/>
  
  <!-- 피드백 루프 -->
  <path d="M680,160 C680,100 400,70 100,150" stroke="#f44336" stroke-width="3" stroke-dasharray="10,5" fill="none" marker-end="url(#arrow-feedback)">
    <animate attributeName="d" values="M680,160 C680,100 400,70 100,150; M680,150 C680,90 400,60 100,140; M680,160 C680,100 400,70 100,150" dur="5s" repeatCount="indefinite"/>
  </path>
  <text x="400" y="100" font-family="Arial" font-size="16" text-anchor="middle" fill="#d32f2f" font-style="italic">
    지속적 최적화 피드백
  </text>
  
  <!-- 호흡 효과 -->
  <circle cx="100" cy="200" r="45" stroke="#64b5f6" stroke-width="0.5" fill="none" opacity="0.6">
    <animate attributeName="r" values="45;50;45" dur="4s" repeatCount="indefinite"/>
    <animate attributeName="opacity" values="0.6;0.2;0.6" dur="4s" repeatCount="indefinite"/>
  </circle>
  
  <!-- 마커 정의 -->
  <defs>
    <marker id="arrow" viewBox="0 0 10 10" refX="1" refY="5"
        markerWidth="6" markerHeight="6" orient="auto">
      <path d="M 0 0 L 10 5 L 0 10 z" fill="#333"/>
    </marker>
    <marker id="arrow-feedback" viewBox="0 0 10 10" refX="1" refY="5"
        markerWidth="6" markerHeight="6" orient="auto">
      <path d="M 0 0 L 10 5 L 0 10 z" fill="#f44336"/>
    </marker>
  </defs>
  
  <!-- 이동 원 -->
  <circle r="5" fill="#2196f3">
    <animateMotion path="M100,200 L260,200 L400,200 L540,200 L680,200 C680,100 400,70 100,150 L100,200" dur="8s" repeatCount="indefinite"/>
  </circle>
  
  <!-- 설명 텍스트 -->
  <text x="400" y="350" font-family="Arial" font-size="16" text-anchor="middle" fill="#333">
    개인화된 생체신호 분석과 복합 자극 최적화의 지속적인 순환
  </text>
</svg>
